<svg xmlns="http://www.w3.org/2000/svg" viewBox="0 0 360.2 46.7" enable-background="new 0 0 360.2 46.7"><g><path d="M18.4 35.4C8.4 35.4 0 28.1 0 17.8 0 6.7 8.7 0 19 0c11.2 0 18 8.3 18 17.5 0 10.3-8.5 17.9-18.6 17.9zm0-34.5C11 .9 7.9 9.7 7.9 17.9c0 8.7 3.5 16.7 10.7 16.7 7.1 0 10.5-9 10.5-17C29 9.8 25.6.9 18.4.9zM55 18.1c-2.8 0-2.7-1.9-3.6-1.9-1.4 0-2.9 1.3-3.6 3.1V33c.4 1.2 2.8 1.4 4.1 1.6v.5H39.3v-.5c1.5-.1 2.7-.9 2.7-1.9V17.6c0-.5 0-.7-.5-1-.6-.3-1.5-.9-2.3-1.2v-.3l8.3-3.5h.3l-.1 6.7h.1c.7-1.5 2.5-6.7 6.6-6.7 1.7 0 3 1.4 3 3.3.1 2-1.3 3.2-2.4 3.2zM74.9 35.4h-.3v-5c-1.7 3.2-4 4.9-7.7 4.9-4.6 0-9-4.2-9-11.6 0-6.7 4.7-12 11.8-12 1.9 0 3.6.4 4.9.8l-.1-7.2-3.9-1.6v-.3L80.2.2h.4v30.4c.5.3 2.2 1.1 3.4 1.6v.3l-9.1 2.9zM74.5 18c-1.1-2.6-3.1-5.4-4.7-5.4-4 0-5.5 5.1-5.5 10.3 0 4.8 2 9.6 6 9.6 2 0 3.8-1.2 4.2-3.7V18zM85 35.1v-.5c1.5-.1 3.3-.7 3.3-1.9V17.4c0-.5 0-.9-.5-1.2-.6-.4-1.5-.8-2.4-1.1v-.3l8.5-3.1h.3v21.2c0 1.2 1.9 1.7 3.1 1.8v.5H85zm6-26.5c-1.8 0-3.5-1.6-3.5-3.5 0-2 1.5-3.4 3.5-3.4 1.9 0 3.5 1.4 3.5 3.4-.1 2-1.7 3.5-3.5 3.5zM112.7 35.1v-.5c1.7-.1 2.9-.7 2.9-1.7V21.6c0-3.1-1-5.8-3.9-5.8-1.5 0-2.8.6-3.8 1.7V33c.2 1.2 1.3 1.4 2.6 1.6v.5H99.3v-.5c1.5-.1 2.7-.9 2.7-1.9V17.3c0-.5 0-.7-.5-1-.6-.3-1.5-.8-2.3-1.1v-.3l8.3-3.3h.3v5.2l.2.2c1.5-2.3 4.2-5.3 7.8-5.3 3.8 0 5.8 3.1 5.8 7.4V33c0 1 1.9 1.5 3 1.6v.4h-11.9zM142.6 35.3c-2.5 0-4.8-1.6-5-4.6h-.1c-1 2.4-3.2 4.6-6.8 4.6-2.4 0-4.8-1.5-4.8-4.8 0-1.9 1.6-3.9 3.8-5.1 4.3-2.4 6.4-3.4 7.7-4.2v-3.6c-.3-1.9-1.8-3.5-3.6-3.7-2 .3-2.2 1.4-2.2 2.2v3.7c0 .9-1.7 1.9-3.3 1.9-1.4 0-2.7-1-2.7-2.3 0-1.9 1.2-2.8 2.7-3.8 3-1.8 7.9-3.8 9.7-3.9 2.2.1 3.8.9 4.9 3.2.2.4.3 1.7.3 2.8 0 4.6-.1 5.7-.1 10.1 0 2.9 1.2 3.6 2.4 3.6 1.5 0 2.1-.9 2.3-1.8h.3c0 2.4-2.2 5.7-5.5 5.7zm-5.1-13.4c-2 1.5-5.7 2.5-5.7 6.5 0 1.6 1.3 2.9 2.7 2.9.9 0 2.4-.3 2.7-.8.2-.4.3-.7.3-1.2v-7.4zM164.3 18.1c-2.8 0-2.7-1.9-3.6-1.9-1.4 0-2.9 1.3-3.6 3.1V33c.4 1.2 2.8 1.4 4.1 1.6v.5h-12.7v-.5c1.5-.1 2.7-.9 2.7-1.9V17.6c0-.5 0-.7-.5-1-.6-.3-1.5-.9-2.3-1.2v-.3l8.3-3.5h.3l-.1 6.7h.1c.7-1.5 2.5-6.7 6.6-6.7 1.7 0 3 1.4 3 3.3.2 2-1.2 3.2-2.3 3.2zM186.8 15.3c-1.1 3-5.7 17-9.5 27.7-1 2.8-2.5 3.7-4.3 3.7-1.5 0-3.4-1.2-3.4-2.9 0-1.8 1.3-3 2.9-3 1.5 0 2.6 1.2 3.6 2.4h.1c1.7-4.5 2.4-6.3 2.5-7-.4-.9-5.6-14.1-8.7-21.9-.6-.6-1.2-1.4-3.5-1.5v-.5h12.6v.5c-1.3.2-2.5.7-2.5 1.9 0 .7 3 8 5 13.1 1.4-4.4 4-12.3 4-13.2 0-1.2-1.6-1.7-2.8-1.8v-.5h7.6v.5c-1.3 0-2.9.6-3.6 2.5zM215.3 35.5c-6.4 0-9.8-2.3-10.1-2.3-.2 0-1 1.1-1.5 1.8h-.4l-.1-10.8h.5c1.2 3.4 4.4 7.5 6.6 9 1 .7 2.9 1.6 4.8 1.6 4.4 0 7.3-2.6 7.3-6.9 0-3.3-2.4-4.8-5.6-5.9-2-.7-4.4-1.5-6.9-2.5-3.8-1.6-6.4-4.7-6.4-9 0-7 6.4-10.4 12.5-10.4 6 0 8.8 2.5 9.2 2.5.2 0 1-1.2 1.4-2h.5v10.2h-.5c-1.6-4.4-5.7-10-10.1-10-3.9 0-6.8 2.9-6.8 6.4 0 3.2 2.6 4.9 5.6 6.1 1.8.7 4.1 1.5 6.3 2.4 4.8 1.8 7.4 4.6 7.4 9.5-.3 6.4-6.4 10.3-13.7 10.3zM246.4 15.1h-6.9v12c0 3.3 1.2 4.7 3.5 4.7 1.9 0 3.4-1 4.1-1.9l.3.1c-.7 2-3.1 5.4-7.6 5.4-3.1 0-6.1-2.1-6.1-4.2 0-6 .2-12 .2-16.1h-3.6v-.5l8.9-7.5h.4v5.1h8.5l-1.7 2.9zM265.9 35.3h-.3v-5c-1.4 2.2-4.1 5.1-7.7 5.1-4.1 0-6-2.6-6-7.2V16.6c0-.5 0-2-.2-2.4-.5-1.1-2-1.4-3.2-1.5v-.5h9.4v13.3c0 4.2.7 6.2 3.6 6.2 2.4 0 3.4-1 4.2-2V16.1c0-.5-.1-1.8-.5-2.4-.8-.4-2.2-.9-3.6-1v-.5h10v18.5c0 .5 0 .7.5 1 .6.3 1.9 1 2.7 1.3v.3l-8.9 2zM292.7 35.4h-.3v-5c-1.7 3.2-4 4.9-7.7 4.9-4.6 0-9-4.2-9-11.6 0-6.7 4.7-12 11.8-12 1.9 0 3.6.4 4.9.8l-.1-7.2-3.9-1.6v-.3L298 .2h.4v30.4c.5.3 2.2 1.1 3.4 1.6v.3l-9.1 2.9zm-.4-17.4c-1.1-2.6-3.1-5.4-4.7-5.4-4 0-5.5 5.1-5.5 10.3 0 4.8 2 9.6 6 9.6 2 0 3.8-1.2 4.2-3.7V18zM302.7 35.1v-.5c1.5-.1 3.3-.7 3.3-1.9V17.4c0-.5 0-.9-.5-1.2-.6-.4-1.5-.8-2.4-1.1v-.3l8.5-3.1h.3v21.2c0 1.2 1.9 1.7 3.1 1.8v.5h-12.3zm6-26.5c-1.8 0-3.5-1.6-3.5-3.5 0-2 1.5-3.4 3.5-3.4 1.9 0 3.5 1.4 3.5 3.4s-1.6 3.5-3.5 3.5zM327.7 35.4c-5.2 0-11.8-3.8-11.8-11.9 0-6.2 4.7-11.8 11.9-11.8 5.5 0 11.7 3.8 11.7 11.8 0 6.7-5.1 11.9-11.8 11.9zm-.1-22.9c-3.4 0-5.2 5.5-5.2 11.1 0 5.5 1.4 11.1 5.5 11.1 3.8 0 5.1-6.7 5.1-11.2 0-4.6-1.3-11-5.4-11zM350.3 35.4c-3.4 0-6.3-.8-8.4-1.7v-7.3h.4c1.2 2.9 4.2 8.4 7.5 8.4 2.4 0 4.7-1.4 4.7-4.8 0-2-1.4-2.8-3.5-3.4-1.3-.4-3.5-1-4.7-1.4-2.4-.9-4.1-3.3-4.1-6.4 0-4.3 4.4-7 8.7-7 3 0 5.6.7 7.4 1.4l.6 6.9-.4.1c-1.6-3.5-4.7-7.7-7.5-7.7-2.2 0-3.9 1.6-3.9 3.8 0 2.3 1.4 3.1 3.5 3.7 1.3.4 3.5.9 4.4 1.2 3.1 1 5.2 3.4 5.2 6.7 0 5.2-4.9 7.5-9.9 7.5z"/></g></svg>