<?xml version="1.0" encoding="utf-8"?>
<!-- Generator: Adobe Illustrator 18.1.1, SVG Export Plug-In . SVG Version: 6.00 Build 0)  -->
<svg version="1.1" xmlns="http://www.w3.org/2000/svg" xmlns:xlink="http://www.w3.org/1999/xlink" x="0px" y="0px"
	 viewBox="0 0 360.2 46.7" enable-background="new 0 0 360.2 46.7" xml:space="preserve">
<g id="Layer_2">
</g>
<g id="Layer_1">
	<g>
		<path d="M18.4,35.4C8.4,35.4,0,28.1,0,17.8C0,6.7,8.7,0,19,0c11.2,0,18,8.3,18,17.5C37,27.8,28.5,35.4,18.4,35.4z M18.4,0.9
			c-7.4,0-10.5,8.8-10.5,17c0,8.7,3.5,16.7,10.7,16.7c7.1,0,10.5-9,10.5-17C29,9.8,25.6,0.9,18.4,0.9z"/>
		<path d="M55,18.1c-2.8,0-2.7-1.9-3.6-1.9c-1.4,0-2.9,1.3-3.6,3.1V33c0.4,1.2,2.8,1.4,4.1,1.6v0.5H39.3v-0.5
			c1.5-0.1,2.7-0.9,2.7-1.9V17.6c0-0.5,0-0.7-0.5-1c-0.6-0.3-1.5-0.9-2.3-1.2v-0.3l8.3-3.5h0.3l-0.1,6.7h0.1
			c0.7-1.5,2.5-6.7,6.6-6.7c1.7,0,3,1.4,3,3.3C57.5,16.9,56.1,18.1,55,18.1z"/>
		<path d="M74.9,35.4h-0.3v-4.9l0-0.1c-1.7,3.2-4,4.9-7.7,4.9c-4.6,0-9-4.2-9-11.6c0-6.7,4.7-12,11.8-12c1.9,0,3.6,0.4,4.9,0.8
			l-0.1-7.2l-3.9-1.6V3.4l9.6-3.2h0.4v30.4c0.5,0.3,2.2,1.1,3.4,1.6v0.3L74.9,35.4z M74.5,18c-1.1-2.6-3.1-5.4-4.7-5.4
			c-4,0-5.5,5.1-5.5,10.3c0,4.8,2,9.6,6,9.6c2,0,3.8-1.2,4.2-3.7V18z"/>
		<path d="M85,35.1v-0.5c1.5-0.1,3.3-0.7,3.3-1.9V17.4c0-0.5,0-0.9-0.5-1.2c-0.6-0.4-1.5-0.8-2.4-1.1v-0.3l8.5-3.1h0.3v21.2
			c0,1.2,1.9,1.7,3.1,1.8v0.5H85z M91,8.6c-1.8,0-3.5-1.6-3.5-3.5c0-2,1.5-3.4,3.5-3.4c1.9,0,3.5,1.4,3.5,3.4
			C94.4,7.1,92.8,8.6,91,8.6z"/>
		<path d="M112.7,35.1v-0.5c1.7-0.1,2.9-0.7,2.9-1.7V21.6c0-3.1-1-5.8-3.9-5.8c-1.5,0-2.8,0.6-3.8,1.7V33c0.2,1.2,1.3,1.4,2.6,1.6
			v0.5H99.3v-0.5c1.5-0.1,2.7-0.9,2.7-1.9V17.3c0-0.5,0-0.7-0.5-1c-0.6-0.3-1.5-0.8-2.3-1.1v-0.3l8.3-3.3h0.3v5.2L108,17
			c1.5-2.3,4.2-5.3,7.8-5.3c3.8,0,5.8,3.1,5.8,7.4V33c0,1,1.9,1.5,3,1.6v0.4H112.7z"/>
		<path d="M142.6,35.3c-2.5,0-4.8-1.6-5-4.6l-0.1,0c-1,2.4-3.2,4.6-6.8,4.6c-2.4,0-4.8-1.5-4.8-4.8c0-1.9,1.6-3.9,3.8-5.1
			c4.3-2.4,6.4-3.4,7.7-4.2v-3.6c-0.3-1.9-1.8-3.5-3.6-3.7c-2,0.3-2.2,1.4-2.2,2.2v3.7c0,0.9-1.7,1.9-3.3,1.9c-1.4,0-2.7-1-2.7-2.3
			c0-1.9,1.2-2.8,2.7-3.8c3-1.8,7.9-3.8,9.7-3.9c2.2,0.1,3.8,0.9,4.9,3.2c0.2,0.4,0.3,1.7,0.3,2.8c0,4.6-0.1,5.7-0.1,10.1
			c0,2.9,1.2,3.6,2.4,3.6c1.5,0,2.1-0.9,2.3-1.8h0.3C148.1,32,145.9,35.3,142.6,35.3z M137.5,21.9c-2,1.5-5.7,2.5-5.7,6.5
			c0,1.6,1.3,2.9,2.7,2.9c0.9,0,2.4-0.3,2.7-0.8c0.2-0.4,0.3-0.7,0.3-1.2V21.9z"/>
		<path d="M164.3,18.1c-2.8,0-2.7-1.9-3.6-1.9c-1.4,0-2.9,1.3-3.6,3.1V33c0.4,1.2,2.8,1.4,4.1,1.6v0.5h-12.7v-0.5
			c1.5-0.1,2.7-0.9,2.7-1.9V17.6c0-0.5,0-0.7-0.5-1c-0.6-0.3-1.5-0.9-2.3-1.2v-0.3l8.3-3.5h0.3l-0.1,6.7h0.1
			c0.7-1.5,2.5-6.7,6.6-6.7c1.7,0,3,1.4,3,3.3C166.8,16.9,165.4,18.1,164.3,18.1z"/>
		<path d="M186.8,15.3c-1.1,3-5.7,17-9.5,27.7c-1,2.8-2.5,3.7-4.3,3.7c-1.5,0-3.4-1.2-3.4-2.9c0-1.8,1.3-3,2.9-3
			c1.5,0,2.6,1.2,3.6,2.4h0.1c1.7-4.5,2.4-6.3,2.5-7c-0.4-0.9-5.6-14.1-8.7-21.9c-0.6-0.6-1.2-1.4-3.5-1.5v-0.5h12.6v0.5
			c-1.3,0.2-2.5,0.7-2.5,1.9c0,0.7,3,8,5,13.1c1.4-4.4,4-12.3,4-13.2c0-1.2-1.6-1.7-2.8-1.8v-0.5h7.6v0.5
			C189.1,12.8,187.5,13.4,186.8,15.3z"/>
		<path d="M215.3,35.5c-6.4,0-9.8-2.3-10.1-2.3c-0.2,0-1,1.1-1.5,1.8h-0.4l-0.1-10.8h0.5c1.2,3.4,4.4,7.5,6.6,9
			c1,0.7,2.9,1.6,4.8,1.6c4.4,0,7.3-2.6,7.3-6.9c0-3.3-2.4-4.8-5.6-5.9c-2-0.7-4.4-1.5-6.9-2.5c-3.8-1.6-6.4-4.7-6.4-9
			c0-7,6.4-10.4,12.5-10.4c6,0,8.8,2.5,9.2,2.5c0.2,0,1-1.2,1.4-2h0.5v10.2h-0.5c-1.6-4.4-5.7-10-10.1-10c-3.9,0-6.8,2.9-6.8,6.4
			c0,3.2,2.6,4.9,5.6,6.1c1.8,0.7,4.1,1.5,6.3,2.4c4.8,1.8,7.4,4.6,7.4,9.5C228.7,31.6,222.6,35.5,215.3,35.5z"/>
		<path d="M246.4,15.1h-6.9v12c0,3.3,1.2,4.7,3.5,4.7c1.9,0,3.4-1,4.1-1.9l0.3,0.1c-0.7,2-3.1,5.4-7.6,5.4c-3.1,0-6.1-2.1-6.1-4.2
			c0-6,0.2-12,0.2-16.1h-3.6v-0.5l8.9-7.5h0.4v5.1h8.5L246.4,15.1z"/>
		<path d="M265.9,35.3h-0.3v-4.9l0-0.1c-1.4,2.2-4.1,5.1-7.7,5.1c-4.1,0-6-2.6-6-7.2V16.6c0-0.5,0-2-0.2-2.4c-0.5-1.1-2-1.4-3.2-1.5
			v-0.5h9.4v13.3c0,4.2,0.7,6.2,3.6,6.2c2.4,0,3.4-1,4.2-2V16.1c0-0.5-0.1-1.8-0.5-2.4c-0.8-0.4-2.2-0.9-3.6-1v-0.5h10v18.5
			c0,0.5,0,0.7,0.5,1c0.6,0.3,1.9,1,2.7,1.3v0.3L265.9,35.3z"/>
		<path d="M292.7,35.4h-0.3v-4.9l0-0.1c-1.7,3.2-4,4.9-7.7,4.9c-4.6,0-9-4.2-9-11.6c0-6.7,4.7-12,11.8-12c1.9,0,3.6,0.4,4.9,0.8
			l-0.1-7.2l-3.9-1.6V3.4l9.6-3.2h0.4v30.4c0.5,0.3,2.2,1.1,3.4,1.6v0.3L292.7,35.4z M292.3,18c-1.1-2.6-3.1-5.4-4.7-5.4
			c-4,0-5.5,5.1-5.5,10.3c0,4.8,2,9.6,6,9.6c2,0,3.8-1.2,4.2-3.7V18z"/>
		<path d="M302.7,35.1v-0.5c1.5-0.1,3.3-0.7,3.3-1.9V17.4c0-0.5,0-0.9-0.5-1.2c-0.6-0.4-1.5-0.8-2.4-1.1v-0.3l8.5-3.1h0.3v21.2
			c0,1.2,1.9,1.7,3.1,1.8v0.5H302.7z M308.7,8.6c-1.8,0-3.5-1.6-3.5-3.5c0-2,1.5-3.4,3.5-3.4c1.9,0,3.5,1.4,3.5,3.4
			C312.2,7.1,310.6,8.6,308.7,8.6z"/>
		<path d="M327.7,35.4c-5.2,0-11.8-3.8-11.8-11.9c0-6.2,4.7-11.8,11.9-11.8c5.5,0,11.7,3.8,11.7,11.8
			C339.5,30.2,334.4,35.4,327.7,35.4z M327.6,12.5c-3.4,0-5.2,5.5-5.2,11.1c0,5.5,1.4,11.1,5.5,11.1c3.8,0,5.1-6.7,5.1-11.2
			C333,18.9,331.7,12.5,327.6,12.5z"/>
		<path d="M350.3,35.4c-3.4,0-6.3-0.8-8.4-1.7v-7.3h0.4c1.2,2.9,4.2,8.4,7.5,8.4c2.4,0,4.7-1.4,4.7-4.8c0-2-1.4-2.8-3.5-3.4
			c-1.3-0.4-3.5-1-4.7-1.4c-2.4-0.9-4.1-3.3-4.1-6.4c0-4.3,4.4-7,8.7-7c3,0,5.6,0.7,7.4,1.4l0.6,6.9l-0.4,0.1
			c-1.6-3.5-4.7-7.7-7.5-7.7c-2.2,0-3.9,1.6-3.9,3.8c0,2.3,1.4,3.1,3.5,3.7c1.3,0.4,3.5,0.9,4.4,1.2c3.1,1,5.2,3.4,5.2,6.7
			C360.2,33.1,355.3,35.4,350.3,35.4z"/>
	</g>
</g>
</svg>
